# xmcd CD database file
#
# Track frame offsets:
#	150
#	21117
#	43627
#	55350
#	65720
#	86007
#	110372
#	128942
#
# Disc length: 1962 seconds
#
# Revision: 0
# Processed by: cddbd v1.5.1PL0 Copyright (c) Steve Scherf et al.
# Submitted via: CDex 1.51
#
DISCID=6d07a808
DTITLE=Vari - I COLORI DELLA VITA - Cielo e terra
DYEAR=2005
DGENRE=New Age
TTITLE0=Claudio Baglioni - Gesù caro fratello
TTITLE1=Lucio Dalla - Se io fossi un angelo 
TTITLE2=Fabrizio De André - Spiritual
TTITLE3=Equipe 84 - E' dall'amore che nasce l'uomo
TTITLE4=Marco Masini - Dio non c'è
TTITLE5=Mario Castelnuovo - Sette fili di canapa
TTITLE6=Domenico Modugno - Meraviglioso
TTITLE7=Mia Martini - E non finisce mica il cielo
EXTD=YEAR: 2005
EXTT0=
EXTT1=
EXTT2=
EXTT3=
EXTT4=
EXTT5=
EXTT6=
EXTT7=
PLAYORDER=
